<svg id="Layer_1" data-name="Layer 1" xmlns="http://www.w3.org/2000/svg" viewBox="0 0 300 294.29"><defs><style>.cls-1{fill:#eb453d;}.cls-2{fill:#303;}</style></defs><title>mill-loog</title><path class="cls-1" d="M149.68,74.61,89.76,40.78l29,50.19a39.09,39.09,0,0,0,9.38-1.32,38.36,38.36,0,0,0,21.56-15"/><path class="cls-1" d="M144.85,88.07a44.84,44.84,0,0,1-22.76,8.71l28.47,49.3.15-63.26a44.86,44.86,0,0,1-5.86,5.25"/><path class="cls-1" d="M155.75,35.73a38.79,38.79,0,0,0-1.12,33.87l59-33.87Z"/><path class="cls-1" d="M145.52,58.58a44.87,44.87,0,0,1,3.58-22.85H93l54,30.51a44.53,44.53,0,0,1-1.5-7.66"/><path class="cls-1" d="M81.07,63.08A38.7,38.7,0,0,0,111.49,90.4L81.9,39.13a38.33,38.33,0,0,0-.83,23.95"/><path class="cls-1" d="M159,153.73a39.11,39.11,0,0,0,32.41-38.36A38.43,38.43,0,0,0,189,101.82Z"/><path class="cls-1" d="M180.41,88.35A38.39,38.39,0,0,0,156.71,77l-.16,69.08,29.29-50.74a39,39,0,0,0-5.43-7"/><path class="cls-1" d="M199.55,16.48a38.63,38.63,0,0,0-39.87,13.27H220a38.34,38.34,0,0,0-20.44-13.27"/><path class="cls-1" d="M228.42,32.77a2.89,2.89,0,0,1-.4,1.46l-35.3,61.15A44.69,44.69,0,0,1,194,132.57a45.38,45.38,0,0,1-23.33,23.86,44,44,0,0,1-17.06,3.81h-.07a3,3,0,0,1-2.09-.86,3,3,0,0,1-.64-.92L115.23,96.87a44.57,44.57,0,0,1-36.35-65.6,3,3,0,0,1,1.81-1.46,2.92,2.92,0,0,1,.83-.12,3.17,3.17,0,0,1,.53,0h70.26A44.57,44.57,0,0,1,228,30.83a3,3,0,0,1,.4,1.94m7.51-6.71h0A53.75,53.75,0,0,0,163,7.17a54.21,54.21,0,0,0-15.47,13.34h-65a12.11,12.11,0,0,0-4.48.43,12.35,12.35,0,0,0-7.37,5.95,53.88,53.88,0,0,0,38.81,78.63l33.07,57.27a12.22,12.22,0,0,0,10.75,6.68h.39a53.22,53.22,0,0,0,20.64-4.6,54.54,54.54,0,0,0,28.09-28.74,53.95,53.95,0,0,0,.56-40.2l33-57.08a12.91,12.91,0,0,0-.09-12.79"/><path class="cls-1" d="M170.81,74.56a45.1,45.1,0,0,1,18.38,15l28.39-49.18-54.9,31.54a44.5,44.5,0,0,1,8.13,2.68"/><path class="cls-2" d="M14.56,278.05a14.25,14.25,0,0,0-4.88.83H9.36l5.2-13.82,5.22,13.82h-.32a14.53,14.53,0,0,0-4.9-.83m3.19-18.12H11.38L0,288.93H5.06a6.46,6.46,0,0,1,.55-1.08,5.71,5.71,0,0,1,.67-1,10.09,10.09,0,0,1,5.49-3.8,7.11,7.11,0,0,1,1.2-.25,4.92,4.92,0,0,1,.64-.09c.33,0,.62-.05,1-.05s.64,0,1,.05a10.39,10.39,0,0,1,2.81.66,3.6,3.6,0,0,1,.66.3H19c.23.12.44.23.64.35s.46.27.67.41a5.58,5.58,0,0,1,.78.6,3.59,3.59,0,0,1,.74.67A7.5,7.5,0,0,1,23,287a10.21,10.21,0,0,1,1.11,2h5.06Z"/><path class="cls-2" d="M59.51,274.45c0-5.61-3.48-10-9.95-10h-5.7v20h5.7c6.3,0,9.95-4.52,9.95-10M38.78,288.92v-29H49.56c9,0,15.17,6,15.17,14.52s-6.13,14.47-15.17,14.47Z"/><polygon class="cls-2" points="83.13 288.93 71.74 259.93 77.52 259.93 86.3 283.4 95.08 259.93 100.86 259.93 89.48 288.93 83.13 288.93"/><polygon class="cls-2" points="110.51 288.93 110.51 259.93 130.38 259.93 130.38 264.41 115.59 264.41 115.59 271.93 130.07 271.93 130.07 276.41 115.59 276.41 115.59 284.45 130.38 284.45 130.38 288.93 110.51 288.93"/><polygon class="cls-2" points="162.61 288.93 147.48 268.23 147.48 288.93 142.39 288.93 142.39 259.93 147.61 259.93 162.43 280.06 162.43 259.93 167.52 259.93 167.52 288.93 162.61 288.93"/><path class="cls-2" d="M210.66,277.49V259.93h5.13v17.39c0,4.61,2.57,7.6,7.43,7.6s7.39-3,7.39-7.6V259.93h5.13v17.52c0,7.21-4.12,12-12.52,12s-12.56-4.83-12.56-12"/><path class="cls-2" d="M251.45,273.61v-9.2h7c2.87,0,4.94,1.82,4.94,4.6s-2.07,4.6-4.94,4.6Zm10.16,3.94h.1a8.17,8.17,0,0,0,6.87-8.54c0-5.33-3.75-9.08-9.47-9.08H246.37v29h5.08V278.1h4.9a75.24,75.24,0,0,0,15.27,16.19l3.38-3.15a70.65,70.65,0,0,1-13.39-13.59"/><polygon class="cls-2" points="280.13 259.93 280.13 288.93 300 288.93 300 284.45 285.22 284.45 285.22 276.41 299.7 276.41 299.7 271.93 285.22 271.93 285.22 264.41 300 264.41 300 259.93 280.13 259.93"/><path class="cls-2" d="M7.11,285.88a10.77,10.77,0,0,0-.83,1,7.63,7.63,0,0,1,.83-1"/><path class="cls-2" d="M11.77,283a10.77,10.77,0,0,0-3.84,2.07c-.29.25-.56.5-.82.77A10.08,10.08,0,0,1,11.77,283"/><path class="cls-2" d="M200.24,260.62v4.62a68.69,68.69,0,0,0-8.61-.78v24.47h-5.08V264.48a72.5,72.5,0,0,0-8.58.88v-4.65a76.6,76.6,0,0,1,8.58-.77h.31a74.75,74.75,0,0,1,13.38.69"/><path class="cls-2" d="M98.71,216.14v29H93.63v-12a47.45,47.45,0,0,0-15.09.06v12H73.46v-29h5.08v12.4a52.62,52.62,0,0,1,15.09-.07V216.14Z"/><polygon class="cls-2" points="110.51 245.14 110.51 216.14 130.38 216.14 130.38 220.62 115.59 220.62 115.59 228.14 130.07 228.14 130.07 232.62 115.59 232.62 115.59 240.66 130.38 240.66 130.38 245.14 110.51 245.14"/><path class="cls-2" d="M63,216.83v4.63a66.72,66.72,0,0,0-8.6-.79v24.47H49.34V220.7a70.45,70.45,0,0,0-8.58.87v-4.64a74.11,74.11,0,0,1,8.58-.77v0h.31a75.58,75.58,0,0,1,13.37.69"/><rect class="cls-2" x="200.26" y="216.15" width="5.09" height="28.99"/><polygon class="cls-2" points="217.88 245.14 217.88 216.15 222.96 216.15 222.96 240.66 235.74 240.66 235.74 245.14 217.88 245.14"/><polygon class="cls-2" points="246.37 245.14 246.37 216.15 251.45 216.15 251.45 240.66 264.23 240.66 264.23 245.14 246.37 245.14"/><path class="cls-2" d="M180.24,216.14a75.35,75.35,0,0,0-7.87,12.28,74.63,74.63,0,0,0-7.86-12.28h-7.25v29h5.11V220.9a69.71,69.71,0,0,1,7.5,12.95c.41.88.8,1.77,1.15,2.69h2.69c.34-.92.73-1.81,1.15-2.71A69,69,0,0,1,182.31,221v24.14h5.08v-29Z"/></svg>